G04*
G04 #@! TF.GenerationSoftware,Altium Limited,Altium Designer,26.7.1 (11)*
G04*
G04 Layer_Color=8421504*
G04 Board_Origin=0|0*
%FSLAX44Y44*%
%MOMM*%
G71*
G04*
G04 #@! TF.SameCoordinates,001F3282-091B-47B9-9765-C72A3703C751*
G04*
G04*
G04 #@! TF.FilePolarity,Positive*
G04*
G01*
G75*
%ADD17R,1.2458X0.5458*%
G04:AMPARAMS|DCode=18|XSize=0.55mm|YSize=0.5mm|CornerRadius=0.0625mm|HoleSize=0mm|Usage=FLASHONLY|Rotation=180.000|XOffset=0mm|YOffset=0mm|HoleType=Round|Shape=RoundedRectangle|*
%AMROUNDEDRECTD18*
21,1,0.5500,0.3750,0,0,180.0*
21,1,0.4250,0.5000,0,0,180.0*
1,1,0.1250,-0.2125,0.1875*
1,1,0.1250,0.2125,0.1875*
1,1,0.1250,0.2125,-0.1875*
1,1,0.1250,-0.2125,-0.1875*
%
%ADD18ROUNDEDRECTD18*%
%ADD19C,0.5000*%
G04:AMPARAMS|DCode=20|XSize=1.0043mm|YSize=3.1821mm|CornerRadius=0.4369mm|HoleSize=0mm|Usage=FLASHONLY|Rotation=0.000|XOffset=0mm|YOffset=0mm|HoleType=Round|Shape=RoundedRectangle|*
%AMROUNDEDRECTD20*
21,1,1.0043,2.3084,0,0,0.0*
21,1,0.1306,3.1821,0,0,0.0*
1,1,0.8737,0.0653,-1.1542*
1,1,0.8737,-0.0653,-1.1542*
1,1,0.8737,-0.0653,1.1542*
1,1,0.8737,0.0653,1.1542*
%
%ADD20ROUNDEDRECTD20*%
G04:AMPARAMS|DCode=21|XSize=1.0043mm|YSize=0.8721mm|CornerRadius=0.4361mm|HoleSize=0mm|Usage=FLASHONLY|Rotation=0.000|XOffset=0mm|YOffset=0mm|HoleType=Round|Shape=RoundedRectangle|*
%AMROUNDEDRECTD21*
21,1,1.0043,0.0000,0,0,0.0*
21,1,0.1322,0.8721,0,0,0.0*
1,1,0.8721,0.0661,0.0000*
1,1,0.8721,-0.0661,0.0000*
1,1,0.8721,-0.0661,0.0000*
1,1,0.8721,0.0661,0.0000*
%
%ADD21ROUNDEDRECTD21*%
%ADD22R,1.0043X0.8721*%
%ADD23R,1.3500X0.9500*%
%ADD24R,0.8637X0.9621*%
%ADD25R,3.0000X3.5000*%
%ADD26R,1.2534X1.8042*%
%ADD27R,1.1000X1.2500*%
%ADD28R,1.1000X1.3500*%
%ADD29R,0.5000X0.6000*%
%ADD30R,2.7000X1.0000*%
%ADD31R,2.7000X3.3000*%
%ADD32R,1.7500X2.6500*%
%ADD33R,0.9062X0.9052*%
%ADD34R,1.0000X0.9000*%
%ADD35R,0.9052X0.9062*%
G04:AMPARAMS|DCode=36|XSize=0.6061mm|YSize=0.2568mm|CornerRadius=0.1284mm|HoleSize=0mm|Usage=FLASHONLY|Rotation=90.000|XOffset=0mm|YOffset=0mm|HoleType=Round|Shape=RoundedRectangle|*
%AMROUNDEDRECTD36*
21,1,0.6061,0.0000,0,0,90.0*
21,1,0.3492,0.2568,0,0,90.0*
1,1,0.2568,0.0000,0.1746*
1,1,0.2568,0.0000,-0.1746*
1,1,0.2568,0.0000,-0.1746*
1,1,0.2568,0.0000,0.1746*
%
%ADD36ROUNDEDRECTD36*%
%ADD37R,0.2568X0.6061*%
G04:AMPARAMS|DCode=38|XSize=0.55mm|YSize=0.5mm|CornerRadius=0.0625mm|HoleSize=0mm|Usage=FLASHONLY|Rotation=270.000|XOffset=0mm|YOffset=0mm|HoleType=Round|Shape=RoundedRectangle|*
%AMROUNDEDRECTD38*
21,1,0.5500,0.3750,0,0,270.0*
21,1,0.4250,0.5000,0,0,270.0*
1,1,0.1250,-0.1875,-0.2125*
1,1,0.1250,-0.1875,0.2125*
1,1,0.1250,0.1875,0.2125*
1,1,0.1250,0.1875,-0.2125*
%
%ADD38ROUNDEDRECTD38*%
%ADD39R,5.0800X1.2700*%
%ADD40R,0.8500X0.6500*%
%ADD41R,1.2900X0.8900*%
%ADD42R,1.4000X1.0500*%
%ADD43R,0.8121X0.6587*%
%ADD44R,1.1052X1.0062*%
%ADD45R,1.0062X1.1052*%
%ADD46R,1.5500X1.5000*%
D17*
X2976880Y424180D02*
D03*
D18*
X4208990Y410900D02*
D03*
Y401900D02*
D03*
X3465830Y694690D02*
D03*
Y685690D02*
D03*
X4401820Y457720D02*
D03*
Y448720D02*
D03*
X4284980Y457720D02*
D03*
Y448720D02*
D03*
X4226560Y457720D02*
D03*
Y448720D02*
D03*
X4343400Y457720D02*
D03*
Y448720D02*
D03*
X4152900Y552860D02*
D03*
X4168140Y448720D02*
D03*
Y457720D02*
D03*
X4320750Y410900D02*
D03*
Y401900D02*
D03*
X4379170Y410900D02*
D03*
Y401900D02*
D03*
X4267410Y410900D02*
D03*
Y401900D02*
D03*
X3799840Y432490D02*
D03*
Y423490D02*
D03*
X3625850Y363910D02*
D03*
Y354910D02*
D03*
X3578860Y708660D02*
D03*
Y699660D02*
D03*
X3671570Y701040D02*
D03*
Y692040D02*
D03*
X3763010Y699190D02*
D03*
Y690190D02*
D03*
X3675380Y423600D02*
D03*
Y414600D02*
D03*
Y376610D02*
D03*
Y367610D02*
D03*
Y470590D02*
D03*
Y461590D02*
D03*
X4352290Y1177870D02*
D03*
X4240530D02*
D03*
Y1186870D02*
D03*
X4296410D02*
D03*
X4352290D02*
D03*
X4378960Y561860D02*
D03*
Y552860D02*
D03*
X4211320Y561860D02*
D03*
Y552860D02*
D03*
X4152900Y561860D02*
D03*
X4323080D02*
D03*
Y552860D02*
D03*
X4269740Y561860D02*
D03*
Y552860D02*
D03*
X4490720Y561860D02*
D03*
Y552860D02*
D03*
X4434840Y561860D02*
D03*
Y552860D02*
D03*
X4296410Y1177870D02*
D03*
D19*
X4313540Y639300D02*
D03*
X4303540D02*
D03*
X4293540D02*
D03*
X4283540D02*
D03*
X4273540D02*
D03*
X4263540D02*
D03*
X4253540D02*
D03*
X4243540D02*
D03*
X4233540D02*
D03*
X4223540D02*
D03*
X4213540D02*
D03*
X4203540D02*
D03*
X4193540D02*
D03*
X4183540D02*
D03*
X4173540D02*
D03*
X4163540D02*
D03*
X4313540Y649300D02*
D03*
X4303540D02*
D03*
X4293540D02*
D03*
X4283540D02*
D03*
X4273540D02*
D03*
X4263540D02*
D03*
X4253540D02*
D03*
X4243540D02*
D03*
X4233540D02*
D03*
X4223540D02*
D03*
X4213540D02*
D03*
X4203540D02*
D03*
X4193540D02*
D03*
X4183540D02*
D03*
X4173540D02*
D03*
X4163540D02*
D03*
X4313540Y659300D02*
D03*
X4303540D02*
D03*
X4293540D02*
D03*
X4283540D02*
D03*
X4273540D02*
D03*
X4263540D02*
D03*
X4253540D02*
D03*
X4243540D02*
D03*
X4233540D02*
D03*
X4223540D02*
D03*
X4213540D02*
D03*
X4203540D02*
D03*
X4193540D02*
D03*
X4183540D02*
D03*
X4173540D02*
D03*
X4163540D02*
D03*
X4313540Y669300D02*
D03*
X4303540D02*
D03*
X4293540D02*
D03*
X4283540D02*
D03*
X4273540D02*
D03*
X4263540D02*
D03*
X4253540D02*
D03*
X4243540D02*
D03*
X4233540D02*
D03*
X4223540D02*
D03*
X4213540D02*
D03*
X4203540D02*
D03*
X4193540D02*
D03*
X4183540D02*
D03*
X4173540D02*
D03*
X4163540D02*
D03*
X4313540Y679300D02*
D03*
X4303540D02*
D03*
X4293540D02*
D03*
X4283540D02*
D03*
X4273540D02*
D03*
X4263540D02*
D03*
X4253540D02*
D03*
X4243540D02*
D03*
X4233540D02*
D03*
X4223540D02*
D03*
X4213540D02*
D03*
X4203540D02*
D03*
X4193540D02*
D03*
X4183540D02*
D03*
X4173540D02*
D03*
X4163540D02*
D03*
X4313540Y689300D02*
D03*
X4303540D02*
D03*
X4293540D02*
D03*
X4283540D02*
D03*
X4273540D02*
D03*
X4263540D02*
D03*
X4253540D02*
D03*
X4243540D02*
D03*
X4233540D02*
D03*
X4223540D02*
D03*
X4213540D02*
D03*
X4203540D02*
D03*
X4193540D02*
D03*
X4183540D02*
D03*
X4173540D02*
D03*
X4163540D02*
D03*
X4313540Y699300D02*
D03*
X4303540D02*
D03*
X4293540D02*
D03*
X4283540D02*
D03*
X4273540D02*
D03*
X4263540D02*
D03*
X4253540D02*
D03*
X4243540D02*
D03*
X4233540D02*
D03*
X4223540D02*
D03*
X4213540D02*
D03*
X4203540D02*
D03*
X4193540D02*
D03*
X4183540D02*
D03*
X4173540D02*
D03*
X4163540D02*
D03*
X4313540Y709300D02*
D03*
X4303540D02*
D03*
X4293540D02*
D03*
X4283540D02*
D03*
X4273540D02*
D03*
X4263540D02*
D03*
X4253540D02*
D03*
X4243540D02*
D03*
X4233540D02*
D03*
X4223540D02*
D03*
X4213540D02*
D03*
X4203540D02*
D03*
X4193540D02*
D03*
X4183540D02*
D03*
X4173540D02*
D03*
X4163540D02*
D03*
X4313540Y719300D02*
D03*
X4303540D02*
D03*
X4293540D02*
D03*
X4283540D02*
D03*
X4273540D02*
D03*
X4263540D02*
D03*
X4253540D02*
D03*
X4243540D02*
D03*
X4233540D02*
D03*
X4223540D02*
D03*
X4213540D02*
D03*
X4203540D02*
D03*
X4193540D02*
D03*
X4183540D02*
D03*
X4173540D02*
D03*
X4163540D02*
D03*
X4313540Y729300D02*
D03*
X4303540D02*
D03*
X4293540D02*
D03*
X4283540D02*
D03*
X4273540D02*
D03*
X4263540D02*
D03*
X4253540D02*
D03*
X4243540D02*
D03*
X4233540D02*
D03*
X4223540D02*
D03*
X4213540D02*
D03*
X4203540D02*
D03*
X4193540D02*
D03*
X4183540D02*
D03*
X4173540D02*
D03*
X4163540D02*
D03*
X4313540Y739300D02*
D03*
X4303540D02*
D03*
X4293540D02*
D03*
X4283540D02*
D03*
X4273540D02*
D03*
X4263540D02*
D03*
X4253540D02*
D03*
X4243540D02*
D03*
X4233540D02*
D03*
X4223540D02*
D03*
X4213540D02*
D03*
X4203540D02*
D03*
X4193540D02*
D03*
X4183540D02*
D03*
X4173540D02*
D03*
X4163540D02*
D03*
X4313540Y749300D02*
D03*
X4303540D02*
D03*
X4293540D02*
D03*
X4283540D02*
D03*
X4273540D02*
D03*
X4263540D02*
D03*
X4253540D02*
D03*
X4243540D02*
D03*
X4233540D02*
D03*
X4223540D02*
D03*
X4213540D02*
D03*
X4203540D02*
D03*
X4193540D02*
D03*
X4183540D02*
D03*
X4173540D02*
D03*
X4163540D02*
D03*
X4313540Y759300D02*
D03*
X4303540D02*
D03*
X4293540D02*
D03*
X4283540D02*
D03*
X4273540D02*
D03*
X4263540D02*
D03*
X4253540D02*
D03*
X4243540D02*
D03*
X4233540D02*
D03*
X4223540D02*
D03*
X4213540D02*
D03*
X4203540D02*
D03*
X4193540D02*
D03*
X4183540D02*
D03*
X4173540D02*
D03*
X4163540D02*
D03*
X4313540Y769300D02*
D03*
X4303540D02*
D03*
X4293540D02*
D03*
X4283540D02*
D03*
X4273540D02*
D03*
X4263540D02*
D03*
X4253540D02*
D03*
X4243540D02*
D03*
X4233540D02*
D03*
X4223540D02*
D03*
X4213540D02*
D03*
X4203540D02*
D03*
X4193540D02*
D03*
X4183540D02*
D03*
X4173540D02*
D03*
X4163540D02*
D03*
X4313540Y779300D02*
D03*
X4303540D02*
D03*
X4293540D02*
D03*
X4283540D02*
D03*
X4273540D02*
D03*
X4263540D02*
D03*
X4253540D02*
D03*
X4243540D02*
D03*
X4233540D02*
D03*
X4223540D02*
D03*
X4213540D02*
D03*
X4203540D02*
D03*
X4193540D02*
D03*
X4183540D02*
D03*
X4173540D02*
D03*
X4163540D02*
D03*
X4313540Y789300D02*
D03*
X4303540D02*
D03*
X4293540D02*
D03*
X4283540D02*
D03*
X4273540D02*
D03*
X4263540D02*
D03*
X4253540D02*
D03*
X4243540D02*
D03*
X4233540D02*
D03*
X4223540D02*
D03*
X4213540D02*
D03*
X4203540D02*
D03*
X4193540D02*
D03*
X4183540D02*
D03*
X4173540D02*
D03*
X4163540D02*
D03*
D20*
X3474650Y561340D02*
D03*
D21*
X3408750Y538440D02*
D03*
Y561340D02*
D03*
D22*
Y584240D02*
D03*
D23*
X4757420Y1306710D02*
D03*
Y1291710D02*
D03*
D24*
X4747586Y1395730D02*
D03*
X4762174D02*
D03*
D25*
X4817510Y1203960D02*
D03*
X4867510D02*
D03*
D26*
X3232204Y1316990D02*
D03*
X3206696D02*
D03*
D27*
X2952950Y576580D02*
D03*
X2977950D02*
D03*
D28*
X3133740Y1313180D02*
D03*
X3119740D02*
D03*
X3175650D02*
D03*
X3161650D02*
D03*
X4751690Y1226820D02*
D03*
X4765690D02*
D03*
D29*
X2971920Y458470D02*
D03*
X2986920D02*
D03*
D30*
X3280410Y506730D02*
D03*
Y483730D02*
D03*
Y460730D02*
D03*
D31*
X3339410Y483730D02*
D03*
D32*
X3270250Y1362620D02*
D03*
Y1319620D02*
D03*
D33*
X2981960Y629575D02*
D03*
Y617565D02*
D03*
D34*
X2966610Y519430D02*
D03*
X2984610D02*
D03*
D35*
X3088295Y1314450D02*
D03*
X3076285D02*
D03*
D36*
X2969380Y433710D02*
D03*
X2974380D02*
D03*
X2979380D02*
D03*
X2984380D02*
D03*
Y414650D02*
D03*
X2979380D02*
D03*
X2974380D02*
D03*
D37*
X2969380D02*
D03*
D38*
X3776290Y398780D02*
D03*
X3785290D02*
D03*
X3729300Y515620D02*
D03*
X3738300D02*
D03*
X3702050Y571500D02*
D03*
X3711050D02*
D03*
X4201740Y1174750D02*
D03*
X4165020D02*
D03*
X4210740D02*
D03*
X4156020D02*
D03*
D39*
X4081790Y1306830D02*
D03*
X4013190D02*
D03*
X4081790Y1205230D02*
D03*
Y1230630D02*
D03*
Y1256030D02*
D03*
Y1281430D02*
D03*
X4013190Y1205230D02*
D03*
Y1230630D02*
D03*
Y1256030D02*
D03*
Y1281430D02*
D03*
Y1332230D02*
D03*
Y1357630D02*
D03*
X4081790Y1332230D02*
D03*
Y1357630D02*
D03*
D40*
X3510540Y1172210D02*
D03*
X3495040D02*
D03*
Y1155710D02*
D03*
X3510540D02*
D03*
D41*
X4457340Y1267460D02*
D03*
X4434840D02*
D03*
Y1242060D02*
D03*
X4457340Y1254760D02*
D03*
Y1242060D02*
D03*
X4434840Y1254760D02*
D03*
D42*
X3184940Y1180910D02*
D03*
X3220940D02*
D03*
Y1195410D02*
D03*
X3184940D02*
D03*
D43*
X3161030Y469047D02*
D03*
Y455513D02*
D03*
D44*
X3004820Y1217930D02*
D03*
X3105150Y1207770D02*
D03*
X3091140D02*
D03*
X2990811Y1217930D02*
D03*
X3129935Y461010D02*
D03*
X3115925D02*
D03*
X3084215D02*
D03*
X3070205D02*
D03*
D45*
X3225800Y657860D02*
D03*
Y643850D02*
D03*
X3175000Y664865D02*
D03*
Y650855D02*
D03*
X3121660Y664865D02*
D03*
Y650855D02*
D03*
X3068320Y664865D02*
D03*
Y650855D02*
D03*
X3539490Y1246525D02*
D03*
Y1232515D02*
D03*
X3371850Y1195070D02*
D03*
Y1181060D02*
D03*
X3308350Y1258570D02*
D03*
Y1244560D02*
D03*
D46*
X3436620Y1253600D02*
D03*
Y1235600D02*
D03*
X3356610Y703580D02*
D03*
Y685580D02*
D03*
M02*
